<?xml version="1.0" standalone="no"?><svg xmlns="http://www.w3.org/2000/svg" viewBox="0 0 1440 320"><path fill="#fab1a0" fill-opacity="0.5" d="M0,224L12.6,218.7C25.3,213,51,203,76,186.7C101.1,171,126,149,152,117.3C176.8,85,202,43,227,69.3C252.6,96,278,192,303,234.7C328.4,277,354,267,379,234.7C404.2,203,429,149,455,128C480,107,505,117,531,133.3C555.8,149,581,171,606,176C631.6,181,657,171,682,176C707.4,181,733,203,758,213.3C783.2,224,808,224,834,218.7C858.9,213,884,203,909,186.7C934.7,171,960,149,985,117.3C1010.5,85,1036,43,1061,37.3C1086.3,32,1112,64,1137,69.3C1162.1,75,1187,53,1213,48C1237.9,43,1263,53,1288,69.3C1313.7,85,1339,107,1364,101.3C1389.5,96,1415,64,1427,48L1440,32L1440,320L1427.4,320C1414.7,320,1389,320,1364,320C1338.9,320,1314,320,1288,320C1263.2,320,1238,320,1213,320C1187.4,320,1162,320,1137,320C1111.6,320,1086,320,1061,320C1035.8,320,1011,320,985,320C960,320,935,320,909,320C884.2,320,859,320,834,320C808.4,320,783,320,758,320C732.6,320,707,320,682,320C656.8,320,632,320,606,320C581.1,320,556,320,531,320C505.3,320,480,320,455,320C429.5,320,404,320,379,320C353.7,320,328,320,303,320C277.9,320,253,320,227,320C202.1,320,177,320,152,320C126.3,320,101,320,76,320C50.5,320,25,320,13,320L0,320Z"></path></svg>